<svg width="35" height="35" viewBox="0 0 35 35" fill="none" xmlns="http://www.w3.org/2000/svg">
<path fill-rule="evenodd" clip-rule="evenodd" d="M0 17.5C0 7.83502 7.83502 0 17.5 0C27.165 0 35 7.83502 35 17.5V19.8333C35 20.9837 34.6658 22.0596 34.0888 22.965C33.0552 24.5868 31.2374 25.6667 29.1667 25.6667C26.8998 25.6667 24.9349 24.3736 23.9694 22.4848C22.476 24.4201 20.1336 25.6667 17.5 25.6667C12.9897 25.6667 9.33333 22.0103 9.33333 17.5C9.33333 12.9897 12.9897 9.33333 17.5 9.33333C22.0103 9.33333 25.6667 12.9897 25.6667 17.5V19.8333C25.6667 21.7663 27.2337 23.3333 29.1667 23.3333C30.4071 23.3333 31.4979 22.6889 32.1211 21.711C32.4664 21.1691 32.6667 20.5264 32.6667 19.8333V17.5C32.6667 9.12368 25.8763 2.33333 17.5 2.33333C9.12368 2.33333 2.33333 9.12368 2.33333 17.5C2.33333 25.8763 9.12368 32.6667 17.5 32.6667C20.7239 32.6667 23.7097 31.6621 26.1659 29.9488L27.5008 31.8626C24.6657 33.8401 21.2166 35 17.5 35C7.83502 35 0 27.165 0 17.5ZM23.3333 17.5C23.3333 14.2783 20.7217 11.6667 17.5 11.6667C14.2783 11.6667 11.6667 14.2783 11.6667 17.5C11.6667 20.7217 14.2783 23.3333 17.5 23.3333C20.7217 23.3333 23.3333 20.7217 23.3333 17.5Z" fill="black"/>
</svg>
