<svg width="35" height="35" viewBox="0 0 35 35" fill="none" xmlns="http://www.w3.org/2000/svg">
<path d="M17.5 11.6667C14.2783 11.6667 11.6667 14.2783 11.6667 17.5C11.6667 20.7217 14.2783 23.3333 17.5 23.3333C20.7217 23.3333 23.3333 20.7217 23.3333 17.5C23.3333 14.2783 20.7217 11.6667 17.5 11.6667Z" fill="black"/>
<path fill-rule="evenodd" clip-rule="evenodd" d="M10.5 0C4.70101 0 0 4.70101 0 10.5V24.5C0 30.299 4.70101 35 10.5 35H24.5C30.299 35 35 30.299 35 24.5V10.5C35 4.70101 30.299 0 24.5 0H10.5ZM9.33333 17.5C9.33333 12.9897 12.9897 9.33333 17.5 9.33333C22.0103 9.33333 25.6667 12.9897 25.6667 17.5C25.6667 22.0103 22.0103 25.6667 17.5 25.6667C12.9897 25.6667 9.33333 22.0103 9.33333 17.5ZM25.6667 9.33333H28V7H25.6667V9.33333Z" fill="black"/>
</svg>
