<?xml version="1.0" encoding="utf-8"?>
<!-- Generator: Adobe Illustrator 25.1.0, SVG Export Plug-In . SVG Version: 6.00 Build 0)  -->
<svg version="1.1" id="Bottle" xmlns="http://www.w3.org/2000/svg" xmlns:xlink="http://www.w3.org/1999/xlink" x="0px" y="0px"
	 viewBox="0 0 468.3 468.3" style="enable-background:new 0 0 468.3 468.3;" xml:space="preserve">
<style type="text/css">
	.st0{fill:#D79922;}
	.st1{fill:#F13C1F;}
	.st2{fill:#CC8545;}
	.st3{fill:#E1E6E9;}
	.st4{fill:#606060;}
	.st5{fill:#44C4A1;}
	.st6{fill:#31978C;}
	.st7{fill:#3EA69B;}
	.st8{fill:#64798A;}
	.st9{fill:#E56353;}
</style>
<path class="st0" d="M321.9,419.5c0,0,11.8,32.8-21.6,43.3c0,0-5.4,0.9-13.8,2c-13.5,1.8-34.7,4-52.3,3.3
	c-17.7,0.7-38.8-1.6-52.4-3.3c-8.3-1.1-13.8-2-13.8-2c-33.4-10.6-21.6-43.3-21.6-43.3c17.9-50.1,5.5-145.3,1.3-173.4
	c-0.7-4.3-1.9-8.5-3.2-12.7c-1.9-6.1-1.8-12.4-0.8-18c1.6-8.6,5.6-16.4,10.8-23.4c20.6-27.5,38.3-122.3,38.3-122.3h82.5
	c0,0,17.8,94.8,38.3,122.3c5.3,7,9.3,14.9,10.8,23.4c1,5.6,1.2,11.9-0.7,18c-1.3,4.2-2.6,8.4-3.2,12.7
	C316.4,274.2,304,369.5,321.9,419.5z"/>
<path class="st1" d="M275.1,47.8h-81.9V12.5c0-6.9,5.6-12.5,12.5-12.5h56.9c6.9,0,12.5,5.6,12.5,12.5V47.8z"/>
<path class="st2" d="M269,73.9h-69.6c-6.9,0-12.5-5.6-12.5-12.5v-6.5c0-6.9,5.6-12.5,12.5-12.5H269c6.9,0,12.5,5.6,12.5,12.5v6.5
	C281.4,68.3,275.9,73.9,269,73.9z"/>
<path class="st2" d="M286.5,464.9c-13.5,1.8-34.7,4-52.3,3.3c-17.7,0.7-38.8-1.6-52.4-3.3l31.9-391h40.8L286.5,464.9z"/>
<ellipse class="st3" cx="234.1" cy="326.4" rx="53.4" ry="83.5"/>
<ellipse class="st4" cx="234.1" cy="326.4" rx="36.7" ry="57.4"/>
<g>
	<g>
		<path class="st5" d="M235,305.6c0-5.9-4.8-10.7-10.7-10.7L235,305.6z"/>
	</g>
	<g>
		<path class="st6" d="M229.8,297.8v2.4l-2.2,0.2c-0.2,0-0.3-0.1-0.3-0.2s0.1-0.3,0.2-0.3l1.6-0.2v-1.9c0-0.2,0.2-0.3,0.3-0.3
			C229.6,297.6,229.8,297.7,229.8,297.8z"/>
		<path class="st6" d="M232,300v2.4l-2.2,0.2c-0.2,0-0.3-0.1-0.3-0.2c0-0.2,0.1-0.3,0.2-0.3l1.6-0.2V300c0-0.2,0.2-0.3,0.3-0.3
			S232,299.9,232,300z"/>
	</g>
	<g>
		<path class="st5" d="M239.5,302.5c1.8,2.6,5.3,3.3,7.8,1.5L239.5,302.5z"/>
	</g>
	<path class="st7" d="M239.5,302.5l7.8,1.5C245.5,301.4,242,300.8,239.5,302.5z"/>
	<g>
		<path class="st8" d="M245.1,295.1v4.9c0,0-9.4,1.8-10.7,11.7C234.4,311.6,231.5,302.6,245.1,295.1z"/>
		<path class="st9" d="M243.9,306.6c-0.8,0-1.7,0.1-2.5,0.2c8.4,1.5,14.8,10.3,14.8,21c0,10.8-6.7,27.4-15.2,29.8
			c1,0.2,1.9,0.3,2.8,0.3c9.5,0,17.3-18.4,17.3-30.1C261.2,316.1,253.5,306.6,243.9,306.6z"/>
		<path class="st9" d="M256.2,327.8c0,10.8-6.7,27.4-15.2,29.8c-1.7-0.3-3.3-1-4.9-2c-1.1-0.7-2.7-0.7-3.8,0
			c-0.2,0.1-0.4,0.2-0.6,0.3c-2.2,1.2-4.6,1.9-7.2,1.9c-0.7,0-1.4-0.1-2.1-0.3c-8.5-2.4-15.2-18.9-15.2-29.8
			c0-10.6,6.4-19.5,14.8-21c0.8-0.2,1.6-0.2,2.5-0.2c2.6,0,5,0.7,7.2,1.9c0.2,0.1,0.4,0.2,0.6,0.3c1.1,0.7,2.7,0.7,3.8,0
			c1.6-1,3.4-1.7,5.3-2C249.8,308.3,256.2,317.2,256.2,327.8z"/>
		<path class="st7" d="M235,305.6l-10.7-10.7C224.3,300.8,229.1,305.6,235,305.6z"/>
		<g>
			<path class="st6" d="M244,304.3l-0.7-1.1l0.9-0.7c0.1-0.1,0.2-0.1,0.2,0c0.1,0.1,0.1,0.2,0,0.2l-0.7,0.6l0.6,0.8
				c0.1,0.1,0,0.2,0,0.2C244.4,304.4,244,304.3,244,304.3z"/>
			<path class="st6" d="M242.4,304l-0.7-1.1l0.9-0.7c0.1-0.1,0.2-0.1,0.2,0c0.1,0.1,0.1,0.2,0,0.2l-0.7,0.6l0.6,0.8
				c0.1,0.1,0,0.2,0,0.2C242.6,304.1,242.5,304,242.4,304z"/>
		</g>
	</g>
</g>
</svg>
