<svg width="35" height="35" viewBox="0 0 35 35" fill="none" xmlns="http://www.w3.org/2000/svg">
<path d="M34.9471 3.42278C34.9161 2.95479 34.6078 2.55087 34.1646 2.39746C33.7214 2.24406 33.2294 2.371 32.9157 2.71969C32.1093 3.61606 31.09 4.22345 30.0556 4.5004C28.617 3.15728 26.684 2.3333 24.5598 2.3333C20.0009 2.3333 16.3082 6.03427 16.3082 10.5959V11.6221C9.32863 11.0827 5.59621 5.78071 4.58908 3.09087C4.42629 2.65609 4.0212 2.35921 3.55758 2.3349C3.09395 2.31059 2.66004 2.56348 2.45267 2.97886C0.010309 7.87113 -0.366001 12.6162 1.4091 16.6567C2.96408 20.1962 6.09129 23.0157 10.5235 24.8837C8.50918 26.3112 5.11884 28 1.16676 28C0.652799 28 0.199383 28.3363 0.0502705 28.8282C-0.0988418 29.32 0.0914795 29.8515 0.518915 30.1369C4.30849 32.6672 8.28017 32.6669 11.9743 32.6666L12.0874 32.6666C23.4289 32.6666 32.6199 23.4588 32.6199 12.1041V10.9881C33.468 10.1262 34.1282 9.24395 34.5328 8.10335C34.9842 6.83065 35.0752 5.35491 34.9471 3.42278Z" fill="black"/>
</svg>
